<?xml version="1.0" encoding="utf-8"?>
<!-- Generator: Adobe Illustrator 24.0.2, SVG Export Plug-In . SVG Version: 6.00 Build 0)  -->
<svg version="1.1" id="Capa_1" xmlns="http://www.w3.org/2000/svg" xmlns:xlink="http://www.w3.org/1999/xlink" x="0px" y="0px"
	 viewBox="0 0 448 512" style="enable-background:new 0 0 448 512;" xml:space="preserve">
<style type="text/css">
	.st0{fill:#1A2253;}
</style>
<path class="st0" d="M448,127.1c0,53.9-43,96-96,96c-25.9,0-49.4-9.3-66.6-26l-94.1,47c0.5,3.9-0.2,7-0.2,11.9c0,4,0.7,7.1,0.2,11.9
	l94.1,47c17.2-16.7,40.7-26.9,66.6-26.9c53,0,96,42.1,96,96c0,53-43,96-96,96c-53.9,0-96-43-96-96c0-4.9,0.2-8,0.7-11.9l-94.1-47
	C145.4,341.8,121.9,352,96,352c-53,0-96-43-96-96c0-53.9,43-96,96-96c25.9,0,49.4,10.2,66.6,26.9l94.1-47c-0.5-4.8-0.7-7.9-0.7-11.9
	c0-53,42.1-96,96-96c53,0,96,43,96,96V127.1z M95.1,287.1c18.6,0,32-13.4,32-32c0-16.8-13.4-32-32-32c-16.8,0-32,15.2-32,32
	C63.1,273.7,78.3,287.1,95.1,287.1z M352,95.1c-17.7,0-32,15.2-32,32c0,18.6,14.3,32,32,32s32-13.4,32-32
	C384,110.3,369.7,95.1,352,95.1z M352,416c17.7,0,32-14.3,32-32s-14.3-32-32-32s-32,14.3-32,32S334.3,416,352,416z"/>
</svg>
