<?xml version="1.0" encoding="utf-8"?>
<!-- Generator: Adobe Illustrator 24.0.2, SVG Export Plug-In . SVG Version: 6.00 Build 0)  -->
<svg version="1.1" id="Capa_1" xmlns="http://www.w3.org/2000/svg" xmlns:xlink="http://www.w3.org/1999/xlink" x="0px" y="0px"
	 viewBox="0 0 50 50" style="enable-background:new 0 0 50 50;" xml:space="preserve">
<style type="text/css">
	.st0{fill:#1A2253;}
</style>
<path class="st0" d="M50,10.6c0,6-4.8,10.7-10.7,10.7c-2.9,0-5.5-1-7.4-2.9l-10.5,5.2c0.1,0.4,0,0.8,0,1.3c0,0.4,0.1,0.8,0,1.3
	l10.5,5.2c1.9-1.9,4.5-3,7.4-3c5.9,0,10.7,4.7,10.7,10.7C50,45.2,45.2,50,39.3,50c-6,0-10.7-4.8-10.7-10.7c0-0.5,0-0.9,0.1-1.3
	l-10.5-5.2c-1.9,1.9-4.5,3-7.4,3C4.8,35.7,0,30.9,0,25c0-6,4.8-10.7,10.7-10.7c2.9,0,5.5,1.1,7.4,3L28.6,12
	c-0.1-0.5-0.1-0.9-0.1-1.3C28.6,4.8,33.3,0,39.3,0C45.2,0,50,4.8,50,10.7V10.6z M10.6,28.5c2.1,0,3.6-1.5,3.6-3.6
	c0-1.9-1.5-3.6-3.6-3.6C8.7,21.3,7,23,7,24.9C7,27,8.7,28.5,10.6,28.5z M39.3,7c-2,0-3.6,1.7-3.6,3.6c0,2.1,1.6,3.6,3.6,3.6
	s3.6-1.5,3.6-3.6C42.9,8.7,41.3,7,39.3,7z M39.3,42.9c2,0,3.6-1.6,3.6-3.6c0-2-1.6-3.6-3.6-3.6s-3.6,1.6-3.6,3.6
	C35.7,41.3,37.3,42.9,39.3,42.9z"/>
</svg>
