<?xml version="1.0" encoding="utf-8"?>
<!-- Generator: Adobe Illustrator 24.0.2, SVG Export Plug-In . SVG Version: 6.00 Build 0)  -->
<svg version="1.1" id="Capa_1" xmlns="http://www.w3.org/2000/svg" xmlns:xlink="http://www.w3.org/1999/xlink" x="0px" y="0px"
	 viewBox="0 0 50 50" style="enable-background:new 0 0 50 50;" xml:space="preserve">
<style type="text/css">
	.st0{fill:#1A2253;}
</style>
<path class="st0" d="M44.4,5.6H5.6C2.5,5.6,0,8,0,11.1v27.8c0,3.1,2.5,5.6,5.6,5.6h38.9c3.1,0,5.6-2.5,5.6-5.6V11.1
	C50,8,47.5,5.6,44.4,5.6z M15.3,13.9c3.1,0,5.6,2.5,5.6,5.6S18.4,25,15.3,25s-5.6-2.5-5.6-5.6S12.2,13.9,15.3,13.9z M23.6,36.1H6.9
	c-0.8,0-1.4-0.6-1.4-1.4c0-3.8,3.1-6.9,6.9-6.9h5.6c3.8,0,6.9,3.1,6.9,6.9C25,35.5,24.4,36.1,23.6,36.1z M43.1,30.6H31.9
	c-0.8,0-1.4-0.6-1.4-1.4c0-0.8,0.6-1.4,1.4-1.4h11.1c0.8,0,1.4,0.6,1.4,1.4C44.4,29.9,43.8,30.6,43.1,30.6z M43.1,25H31.9
	c-0.8,0-1.4-0.6-1.4-1.4s0.6-1.4,1.4-1.4h11.1c0.8,0,1.4,0.6,1.4,1.4S43.8,25,43.1,25z M43.1,19.4H31.9c-0.8,0-1.4-0.6-1.4-1.4
	s0.6-1.4,1.4-1.4h11.1c0.8,0,1.4,0.6,1.4,1.4S43.8,19.4,43.1,19.4z"/>
</svg>
