<?xml version="1.0" encoding="utf-8"?>
<!-- Generator: Adobe Illustrator 24.0.2, SVG Export Plug-In . SVG Version: 6.00 Build 0)  -->
<svg version="1.1" id="Control_1" xmlns="http://www.w3.org/2000/svg" xmlns:xlink="http://www.w3.org/1999/xlink" x="0px" y="0px"
	 viewBox="0 0 50 50" style="enable-background:new 0 0 50 50;" xml:space="preserve">
<style type="text/css">
	.st0{fill:#1A2253;stroke:#1A2253;stroke-width:0.25;stroke-miterlimit:10;}
</style>
<title>crosser-control-icon</title>
<path class="st0" d="M39.9,7.5h-5l-0.5,1.1H15.5L15,7.5h-5c-9.2,0-11.2,24.7-9.5,31.3s7.6,2.5,7.6,2.5L15,29.8h19.5l7.3,11.4
	c0,0,6,4.1,7.6-2.5C51.1,32.2,49.2,7.5,39.9,7.5z M11,18.4c-1.7,0-3.1-1.4-3.1-3.2c0-1.7,1.4-3.1,3.2-3.1c1.7,0,3.1,1.4,3.1,3.1
	C14.1,17,12.7,18.4,11,18.4C11,18.4,11,18.4,11,18.4z M20.4,24.5c0,0.1-0.1,0.3-0.1,0.4v0h0c-0.1,0.1-0.2,0.2-0.4,0.2h-1.4v1.5
	c0,0.1,0,0.2-0.1,0.3v0h0c-0.1,0.1-0.2,0.1-0.3,0.1h-1.1c-0.1,0-0.2,0-0.3-0.1h0v0c-0.1-0.1-0.1-0.2-0.1-0.3v-1.5H15
	c-0.3,0-0.6-0.2-0.6-0.6v-0.9c0-0.1,0.1-0.3,0.1-0.4v0h0c0.1-0.1,0.2-0.1,0.4-0.1h1.4v-1.5c0-0.1,0-0.2,0.1-0.3v0h0
	c0.1-0.1,0.2-0.1,0.3-0.1H18c0.1,0,0.2,0,0.3,0.1h0v0c0.1,0.1,0.1,0.2,0.1,0.3v1.5h1.4c0.2,0,0.3,0.1,0.4,0.2h0v0
	c0.1,0.1,0.1,0.2,0.1,0.4L20.4,24.5z M23.5,16.3l1.8-3.8l1,2.8L23.5,16.3z M38.1,11.4c0.8,0,1.4,0.6,1.4,1.4c0,0.8-0.6,1.4-1.4,1.4
	c-0.8,0-1.4-0.6-1.4-1.4C36.7,12,37.4,11.4,38.1,11.4z M32.1,27.2c-1.7,0-3.1-1.4-3.1-3.2c0-1.7,1.4-3.1,3.2-3.1
	c1.7,0,3.1,1.4,3.1,3.1C35.2,25.8,33.8,27.2,32.1,27.2C32.1,27.2,32.1,27.2,32.1,27.2z M35.7,16.7c-0.8,0-1.4-0.6-1.4-1.4
	c0-0.8,0.6-1.4,1.4-1.4c0.8,0,1.4,0.6,1.4,1.4C37.1,16,36.5,16.7,35.7,16.7L35.7,16.7z M38.1,19.1c-0.8,0-1.4-0.6-1.4-1.4
	c0-0.8,0.6-1.4,1.4-1.4c0.8,0,1.4,0.6,1.4,1.4C39.6,18.5,38.9,19.1,38.1,19.1L38.1,19.1z M40.6,16.7c-0.8,0-1.4-0.6-1.4-1.4
	c0-0.8,0.6-1.4,1.4-1.4c0.8,0,1.4,0.6,1.4,1.4C42,16,41.4,16.7,40.6,16.7L40.6,16.7z"/>
</svg>
