<svg id="Control_1" data-name="Control 1" xmlns="http://www.w3.org/2000/svg" viewBox="0 0 500 350"><defs><style>.cls-1{fill:#1a2253;stroke:#1a2253;stroke-miterlimit:10;stroke-width:0.25px;}</style></defs><title>crosser-control-icon</title><path class="cls-1" d="M382.52,19.83h-44l-4.65,10.09H166.09l-4.65-10.09h-44c-82,0-98.92,218.7-84.55,277.16s67.64,21.87,67.64,21.87l61.11-101.22H334.57l64.86,101.22s53.26,36.59,67.64-21.87S464.53,19.83,382.52,19.83ZM125.69,116.39a27.84,27.84,0,1,1,28-27.83A27.9,27.9,0,0,1,125.69,116.39ZM209.43,171a4.86,4.86,0,0,1-1.25,3.24v.09h-.08a4.86,4.86,0,0,1-3.57,1.57H191.68v13.57a4,4,0,0,1-1,2.69v.24h-.21a4.06,4.06,0,0,1-2.84,1.15H178a4.07,4.07,0,0,1-2.84-1.15H175v-.24a4.07,4.07,0,0,1-1-2.69V175.91H161.09a4.91,4.91,0,0,1-4.9-4.9v-7.86a4.84,4.84,0,0,1,1.25-3.24v-.38h.37a4.87,4.87,0,0,1,3.28-1.28h12.85V144.67a4.09,4.09,0,0,1,1-2.69v-.23h.21a4.08,4.08,0,0,1,2.84-1.16h9.58a4.07,4.07,0,0,1,2.84,1.16h.21V142a4,4,0,0,1,1,2.69v13.58h12.85a4.86,4.86,0,0,1,3.57,1.57h.08v.09a4.84,4.84,0,0,1,1.25,3.24ZM236.3,97.83l15.55-34.07,8.89,25ZM366.52,54.37A12.67,12.67,0,1,1,353.79,67,12.71,12.71,0,0,1,366.52,54.37ZM312.66,194.91a27.84,27.84,0,1,1,28-27.83A27.91,27.91,0,0,1,312.66,194.91Zm31.92-93.68a12.67,12.67,0,1,1,12.74-12.67A12.71,12.71,0,0,1,344.58,101.23Zm21.94,21.52a12.67,12.67,0,1,1,12.74-12.67A12.71,12.71,0,0,1,366.52,122.75Zm21.63-21.52a12.67,12.67,0,1,1,12.74-12.67A12.71,12.71,0,0,1,388.15,101.23Z"/></svg>