<?xml version="1.0" encoding="utf-8"?>
<!-- Generator: Adobe Illustrator 24.0.2, SVG Export Plug-In . SVG Version: 6.00 Build 0)  -->
<svg version="1.1" id="Capa_1" xmlns="http://www.w3.org/2000/svg" xmlns:xlink="http://www.w3.org/1999/xlink" x="0px" y="0px"
	 viewBox="0 0 250 250" style="enable-background:new 0 0 250 250;" xml:space="preserve">
<style type="text/css">
	.st0{opacity:0.5;}
</style>
<g class="st0">
	<rect x="189.5" y="118.8" width="11.7" height="11.7"/>
	<path d="M236.2,73.5L236.2,73.5c0-4.2-0.9-7.9-2.7-11.1c-1.8-3.1-4.4-5.7-8-7.8c-29.6-17.1-59.2-34.1-88.8-51.2
		c-8-4.6-15.7-4.4-23.6,0.2c-11.8,6.9-70.8,40.7-88.4,50.9C17.5,58.7,14,65.1,14,73.4c0,34.3,0,68.7,0,103c0,4.1,0.8,7.7,2.6,10.9
		s4.5,5.9,8.1,8c17.6,10.2,76.6,44,88.4,50.9c7.9,4.7,15.6,4.8,23.6,0.2c29.6-17.1,59.2-34.1,88.8-51.2c3.6-2.1,6.4-4.8,8.1-8
		c1.7-3.1,2.6-6.8,2.6-10.9C236.2,176.5,236.2,107.9,236.2,73.5z M126.5,207.6h-0.9c-30.7,0-57.4-16.7-71.7-41.5
		c-7-12.1-11-26.2-11-41.1c0-45.6,37-82.7,82.7-82.7l0,0c30.6,0,57.3,16.6,71.6,41.3l-0.1-0.2l-36,20.7c-7.1-12-20.1-20.1-35-20.2
		h-0.4c-22.7,0-41.1,18.4-41.1,41.1c0,7.1,1.8,14.2,5.4,20.4c7.1,12.4,20.4,20.7,35.7,20.7c15.4,0,28.8-8.4,35.8-21l-0.1,0.3
		l35.9,20.8C183,190.8,156.7,207.3,126.5,207.6z M218.8,118.8H207v11.7h11.7v5.8H207V148h-5.8v-11.7h-11.7V148h-5.8v-11.7H172v-5.8
		h11.7v-11.7H172V113h11.7v-11.7h5.8V113h11.7v-11.7h5.8V113h11.7L218.8,118.8L218.8,118.8z"/>
</g>
</svg>
