<?xml version="1.0" encoding="utf-8"?>
<!-- Generator: Adobe Illustrator 24.0.2, SVG Export Plug-In . SVG Version: 6.00 Build 0)  -->
<svg version="1.1" id="Capa_1" xmlns="http://www.w3.org/2000/svg" xmlns:xlink="http://www.w3.org/1999/xlink" x="0px" y="0px"
	 viewBox="0 0 500 500" style="enable-background:new 0 0 500 500;" xml:space="preserve">
<style type="text/css">
	.st0{fill:#1A2253;}
</style>
<g>
	<rect x="379" y="237.6" class="st0" width="23.5" height="23.5"/>
	<path class="st0" d="M472.4,147L472.4,147c0-8.4-1.8-15.8-5.4-22.2c-3.6-6.3-8.9-11.5-16.1-15.7C391.7,74.9,332.4,40.9,273.2,6.7
		c-16-9.2-31.4-8.9-47.3,0.5C202.3,21.1,84.3,88.7,49.1,109.1c-14.5,8.4-21.5,21.2-21.5,37.9c0,68.7,0,137.4,0,206
		c0,8.2,1.7,15.5,5.2,21.8c3.6,6.5,9,11.9,16.3,16.1c35.2,20.4,153.2,88,176.8,101.9c15.9,9.4,31.3,9.7,47.3,0.5
		c59.2-34.2,118.5-68.2,177.7-102.4c7.3-4.2,12.8-9.7,16.3-16.1c3.5-6.3,5.2-13.6,5.2-21.8C472.4,353,472.4,215.7,472.4,147z
		 M253,415.3l-1.8,0c-61.4,0-114.9-33.4-143.5-83.1C93.8,308,85.8,279.9,85.8,250c0-91.3,74-165.4,165.4-165.4l0,0
		c61.2,0,114.6,33.2,143.2,82.6l-0.3-0.5l-72,41.4c-14.2-24-40.2-40.2-70-40.5h-0.9c-45.5,0-82.3,36.9-82.3,82.3
		c0,14.3,3.7,28.4,10.9,40.9c14.2,24.8,40.9,41.5,71.5,41.5c30.8,0,57.6-16.9,71.7-42l-0.3,0.6l71.9,41.6
		C366.1,381.6,313.5,414.7,253,415.3z M437.6,237.6h-23.5V261h23.5v11.7h-23.5v23.5h-11.7v-23.5H379v23.5h-11.7v-23.5h-23.5V261
		h23.5v-23.5h-23.5v-11.7h23.5v-23.5H379v23.5h23.5v-23.5h11.7v23.5h23.5V237.6z"/>
</g>
</svg>
