<?xml version="1.0" encoding="utf-8"?>
<!-- Generator: Adobe Illustrator 24.0.2, SVG Export Plug-In . SVG Version: 6.00 Build 0)  -->
<svg version="1.1" id="Capa_1" xmlns="http://www.w3.org/2000/svg" xmlns:xlink="http://www.w3.org/1999/xlink" x="0px" y="0px"
	 viewBox="0 0 50 50" style="enable-background:new 0 0 50 50;" xml:space="preserve">
<style type="text/css">
	.st0{opacity:0.5;enable-background:new    ;}
</style>
<path class="st0" d="M46.9,7.8v4.7c0,4.3-9.8,7.8-21.9,7.8S3.1,16.8,3.1,12.5V7.8C3.1,3.5,12.9,0,25,0S46.9,3.5,46.9,7.8z M41.5,21
	c1.9-0.7,3.9-1.6,5.4-2.8v10c0,4.3-9.8,7.8-21.9,7.8S3.1,32.4,3.1,28.1v-9.9c1.4,1.1,3.3,2.1,5.4,2.8c4.4,1.6,10.2,2.5,16.5,2.5
	S37.1,22.5,41.5,21L41.5,21z M8.5,36.6c4.4,1.6,10.2,2.5,16.5,2.5s12.1-0.9,16.5-2.5c1.9-0.7,3.9-1.6,5.4-2.8v8.4
	c0,4.3-9.8,7.8-21.9,7.8S3.1,46.5,3.1,42.2v-8.4C4.6,34.9,6.4,35.9,8.5,36.6z"/>
</svg>
