<?xml version="1.0" encoding="utf-8"?>
<!-- Generator: Adobe Illustrator 24.0.2, SVG Export Plug-In . SVG Version: 6.00 Build 0)  -->
<svg version="1.1" id="Capa_1" xmlns="http://www.w3.org/2000/svg" xmlns:xlink="http://www.w3.org/1999/xlink" x="0px" y="0px"
	 viewBox="0 0 224 256" style="enable-background:new 0 0 224 256;" xml:space="preserve">
<style type="text/css">
	.st0{fill:#B2B2B2;}
</style>
<path class="st0" d="M224,40v24c0,22.1-50.1,40-112,40S0,86.1,0,64V40C0,17.9,50.2,0,112,0S224,17.9,224,40z M196.6,107.3
	c9.9-3.7,19.9-8.4,27.4-14.3v51c0,22.1-50.1,40-112,40S0,166.1,0,144V93.1c7.4,5.8,17,10.6,27.4,14.3c22.4,8,52.3,12.6,84.6,12.6
	S174.1,115.3,196.6,107.3L196.6,107.3z M27.4,187.4c22.4,8,52.3,12.6,84.6,12.6s62.1-4.6,84.6-12.6c9.9-3.7,19.9-8.4,27.4-14.3V216
	c0,22.1-50.1,40-112,40S0,238.1,0,216v-42.9C7.4,178.9,17,183.6,27.4,187.4z"/>
</svg>
