<?xml version="1.0" encoding="utf-8"?>
<!-- Generator: Adobe Illustrator 24.0.2, SVG Export Plug-In . SVG Version: 6.00 Build 0)  -->
<svg version="1.1" id="Capa_1" xmlns="http://www.w3.org/2000/svg" xmlns:xlink="http://www.w3.org/1999/xlink" x="0px" y="0px"
	 viewBox="0 0 448 512" style="enable-background:new 0 0 448 512;" xml:space="preserve">
<style type="text/css">
	.st0{opacity:0.5;}
</style>
<path class="st0" d="M400,224H48c-17.7,0-32,14.3-32,31.1s14.3,32,32,32h352c17.7,0,32-14.3,32-32S417.7,224,400,224z M224,144
	c26.5,0,48-21.5,48-48s-21.5-48-48-48s-48,21.5-48,48S197.5,144,224,144z M224,368c-26.5,0-48,21.5-48,48s21.5,48,48,48
	s48-21.5,48-48S250.5,368,224,368z"/>
</svg>
