<?xml version="1.0" encoding="utf-8"?>
<!-- Generator: Adobe Illustrator 24.0.2, SVG Export Plug-In . SVG Version: 6.00 Build 0)  -->
<svg version="1.1" id="Capa_1" xmlns="http://www.w3.org/2000/svg" xmlns:xlink="http://www.w3.org/1999/xlink" x="0px" y="0px"
	 viewBox="0 0 50 50" style="enable-background:new 0 0 50 50;" xml:space="preserve">
<style type="text/css">
	.st0{opacity:0.5;enable-background:new    ;}
</style>
<path class="st0" d="M46.2,21.2H3.8c-2.1,0-3.8,1.7-3.8,3.7s1.7,3.8,3.8,3.8h42.3c2.1,0,3.8-1.7,3.8-3.8S48.3,21.2,46.2,21.2z
	 M25,11.5c3.2,0,5.8-2.6,5.8-5.8S28.2,0,25,0s-5.8,2.6-5.8,5.8S21.8,11.5,25,11.5z M25,38.5c-3.2,0-5.8,2.6-5.8,5.8S21.8,50,25,50
	s5.8-2.6,5.8-5.8S28.2,38.5,25,38.5z"/>
</svg>
