<?xml version="1.0" encoding="utf-8"?>
<!-- Generator: Adobe Illustrator 24.0.2, SVG Export Plug-In . SVG Version: 6.00 Build 0)  -->
<svg version="1.1" id="Capa_1" xmlns="http://www.w3.org/2000/svg" xmlns:xlink="http://www.w3.org/1999/xlink" x="0px" y="0px"
	 viewBox="0 0 50 50" style="enable-background:new 0 0 50 50;" xml:space="preserve">
<style type="text/css">
	.st0{fill:#1A2253;}
</style>
<path class="st0" d="M44.9,3.1H4.1c-2.5,0-4.6,2.1-4.6,4.7v34.4c0,2.6,2.1,4.7,4.6,4.7h40.7c2.6,0,4.7-2.1,4.7-4.7V7.8
	C49.6,5.2,47.5,3.1,44.9,3.1z M10.4,39.9c0,0.4-0.4,0.8-0.8,0.8H4.9c-0.4,0-0.8-0.4-0.8-0.8v-4.7c0-0.4,0.4-0.8,0.8-0.8h4.6
	c0.4,0,0.8,0.4,0.8,0.8L10.4,39.9z M10.4,27.3c0,0.4-0.4,0.8-0.8,0.8H4.9c-0.4,0-0.8-0.4-0.8-0.8v-4.7c0-0.4,0.4-0.8,0.8-0.8h4.6
	c0.4,0,0.8,0.4,0.8,0.8L10.4,27.3L10.4,27.3z M10.4,14.8c0,0.4-0.4,0.8-0.8,0.8H4.9c-0.4,0-0.8-0.4-0.8-0.8v-4.7
	c0-0.4,0.4-0.8,0.8-0.8h4.6c0.4,0,0.8,0.4,0.8,0.8L10.4,14.8z M33.9,39.1c0,0.9-0.7,1.6-1.6,1.6H16.7c-0.9,0-1.6-0.7-1.6-1.6v-9.4
	c0-0.9,0.7-1.6,1.6-1.6h15.7c0.9,0,1.6,0.7,1.6,1.6V39.1z M33.9,20.3c0,0.9-0.7,1.6-1.6,1.6H16.7c-0.9,0-1.6-0.7-1.6-1.6v-9.4
	c0-0.9,0.7-1.6,1.6-1.6h15.7c0.9,0,1.6,0.7,1.6,1.6V20.3z M44.9,39.9c0,0.4-0.4,0.8-0.8,0.8h-4.6c-0.4,0-0.7-0.4-0.7-0.8v-4.7
	c0-0.4,0.4-0.8,0.8-0.8h4.6c0.4,0,0.8,0.4,0.8,0.8L44.9,39.9L44.9,39.9z M44.9,27.3c0,0.4-0.4,0.8-0.8,0.8h-4.6
	c-0.4,0-0.8-0.4-0.8-0.8v-4.7c0-0.4,0.4-0.8,0.8-0.8h4.6c0.4,0,0.8,0.4,0.8,0.8V27.3z M44.9,14.8c0,0.4-0.4,0.8-0.8,0.8h-4.6
	c-0.4,0-0.8-0.4-0.8-0.8v-4.7c0-0.4,0.4-0.8,0.7-0.8H44c0.4,0,0.8,0.4,0.8,0.8L44.9,14.8L44.9,14.8z"/>
</svg>
