<?xml version="1.0" encoding="utf-8"?>
<!-- Generator: Adobe Illustrator 24.0.2, SVG Export Plug-In . SVG Version: 6.00 Build 0)  -->
<svg version="1.1" id="Capa_1" xmlns="http://www.w3.org/2000/svg" xmlns:xlink="http://www.w3.org/1999/xlink" x="0px" y="0px"
	 viewBox="0 0 256 256" style="enable-background:new 0 0 256 256;" xml:space="preserve">
<style type="text/css">
	.st0{fill:#1A2253;}
</style>
<path class="st0" d="M231.3,16h-208C10.5,16-0.2,26.8-0.2,40v176c0,13.3,10.8,24,23.5,24h208c13.3,0,24-10.8,24-24V40
	C255.3,26.8,245,16,231.3,16z M55.3,204c0,2.2-1.8,4-4,4h-24c-2.2,0-4-1.8-4-4v-24c0-2.2,1.8-4,4-4h23.5c2.2,0,4,1.8,4,4L55.3,204z
	 M55.3,140c0,2.2-1.8,4-4,4h-24c-2.2,0-4-1.8-4-4v-24c0-2.2,1.8-4,4-4h23.5c2.2,0,4,1.8,4,4v24H55.3z M55.3,76c0,2.2-1.8,4-4,4h-24
	c-2.2,0-4-1.8-4-4V52c0-2.2,1.8-4,4-4h23.5c2.2,0,4,1.8,4,4L55.3,76z M175.3,200c0,4.4-3.6,8-8,8h-80c-4.4,0-8-3.6-8-8v-48
	c0-4.4,3.6-8,8-8h80c4.4,0,8,3.6,8,8V200z M175.3,104c0,4.4-3.6,8-8,8h-80c-4.4,0-8-3.6-8-8V56c0-4.4,3.6-8,8-8h80c4.4,0,8,3.6,8,8
	V104z M231.3,204c0,2.2-1.8,4-4,4h-23.6c-2.2,0-3.5-1.8-3.5-4v-24c0-2.2,1.8-4,4-4h23.5c2.2,0,4,1.8,4,4v24H231.3z M231.3,140
	c0,2.2-1.8,4-4,4h-23.6c-2.2,0-4-1.8-4-4v-24c0-2.2,1.8-4,4-4h23.6c2.2,0,4,1.8,4,4V140z M231.3,76c0,2.2-1.8,4-4,4h-23.6
	c-2.2,0-4-1.8-4-4V52c0-2.2,1.8-4,3.6-4h23.5c2.2,0,4,1.8,4,4v24H231.3z"/>
</svg>
