<?xml version="1.0" encoding="utf-8"?>
<!-- Generator: Adobe Illustrator 24.0.2, SVG Export Plug-In . SVG Version: 6.00 Build 0)  -->
<svg version="1.1" id="Capa_1" xmlns="http://www.w3.org/2000/svg" xmlns:xlink="http://www.w3.org/1999/xlink" x="0px" y="0px"
	 viewBox="0 0 512 512" style="enable-background:new 0 0 512 512;" xml:space="preserve">
<style type="text/css">
	.st0{fill:#1A2253;}
</style>
<path class="st0" d="M463.1,32h-416C21.5,32,0,53.5,0,80v352c0,26.5,21.5,48,47.1,48h416c26.5,0,48-21.5,48-48V80
	C511.1,53.5,490.5,32,463.1,32z M111.1,408c0,4.4-3.6,8-8,8h-48c-4.4,0-8-3.6-8-8v-48c0-4.4,3.6-8,8-8h47.1c4.4,0,8,3.6,8,8
	L111.1,408z M111.1,280c0,4.4-3.6,8-8,8h-48c-4.4,0-8-3.6-8-8v-48c0-4.4,3.6-8,8-8h47.1c4.4,0,8,3.6,8,8v48H111.1z M111.1,152
	c0,4.4-3.6,8-8,8h-48c-4.4,0-8-3.6-8-8v-48c0-4.4,3.6-8,8-8h47.1c4.4,0,8,3.6,8,8L111.1,152z M351.1,400c0,8.8-7.2,16-16,16h-160
	c-8.8,0-16-7.2-16-16v-96c0-8.8,7.2-16,16-16h160c8.8,0,16,7.2,16,16V400z M351.1,208c0,8.8-7.2,16-16,16h-160c-8.8,0-16-7.2-16-16
	v-96c0-8.8,7.2-16,16-16h160c8.8,0,16,7.2,16,16V208z M463.1,408c0,4.4-3.6,8-8,8H408c-4.4,0-7.1-3.6-7.1-8v-48c0-4.4,3.6-8,8-8H456
	c4.4,0,8,3.6,8,8v48H463.1z M463.1,280c0,4.4-3.6,8-8,8H408c-4.4,0-8-3.6-8-8v-48c0-4.4,3.6-8,8-8h47.1c4.4,0,8,3.6,8,8V280z
	 M463.1,152c0,4.4-3.6,8-8,8H408c-4.4,0-8-3.6-8-8v-48c0-4.4,3.6-8,7.1-8h47.1c4.4,0,8,3.6,8,8v48H463.1z"/>
</svg>
