<?xml version="1.0" encoding="utf-8"?>
<!-- Generator: Adobe Illustrator 24.0.2, SVG Export Plug-In . SVG Version: 6.00 Build 0)  -->
<svg version="1.1" id="Capa_1" xmlns="http://www.w3.org/2000/svg" xmlns:xlink="http://www.w3.org/1999/xlink" x="0px" y="0px"
	 viewBox="0 0 256 256" style="enable-background:new 0 0 256 256;" xml:space="preserve">
<style type="text/css">
	.st0{fill:#1A2253;}
</style>
<path class="st0" d="M88.3,114.3l15.4,45.7H152l14.8-45.7l-39.1-28.3L88.3,114.3z M127.3,0C57,0-0.4,57.3-0.4,128S57,256,127.8,256
	s127.8-57.3,127.8-127.6S198.6,0,127.3,0z M208.2,180.4l-42.8-0.6l-12.6,40.8c-8,2.1-16.4,3.4-25.1,3.4s-17.1-1.3-25.1-3.4
	l-12.6-40.8l-42.8,0.6c-9.1-13.9-14.6-30.1-15.5-47.7l35-24.6L52.9,67.8c10.6-13.1,24.6-23.3,40.6-29.4L127.8,64L162,38.4
	c16,6.1,30,16.3,40.6,29.4l-13.8,40.4l35,24.5C222.8,150.3,217.3,166.6,208.2,180.4z"/>
</svg>
