<?xml version="1.0" encoding="utf-8"?>
<!-- Generator: Adobe Illustrator 24.0.2, SVG Export Plug-In . SVG Version: 6.00 Build 0)  -->
<svg version="1.1" id="Capa_1" xmlns="http://www.w3.org/2000/svg" xmlns:xlink="http://www.w3.org/1999/xlink" x="0px" y="0px"
	 viewBox="0 0 50 50" style="enable-background:new 0 0 50 50;" xml:space="preserve">
<style type="text/css">
	.st0{fill:#1A2253;}
</style>
<path class="st0" d="M16.9,22.3l3,8.9h9.4l2.9-8.9l-7.6-5.5L16.9,22.3z M24.5,0C10.8,0-0.4,11.2-0.4,25s11.2,25,25,25
	s25-11.2,25-24.9S38.5,0,24.5,0z M40.3,35.2L32,35.1l-2.5,8c-1.6,0.4-3.2,0.7-4.9,0.7s-3.3-0.3-4.9-0.7l-2.5-8l-8.4,0.1
	c-1.8-2.7-2.9-5.9-3-9.3l6.8-4.8L10,13.2c2.1-2.6,4.8-4.6,7.9-5.7l6.7,5l6.7-5c3.1,1.2,5.9,3.2,7.9,5.7l-2.7,7.9l6.8,4.8
	C43.2,29.4,42.1,32.5,40.3,35.2z"/>
</svg>
