<?xml version="1.0" encoding="utf-8"?>
<!-- Generator: Adobe Illustrator 24.0.2, SVG Export Plug-In . SVG Version: 6.00 Build 0)  -->
<svg version="1.1" id="Capa_1" xmlns="http://www.w3.org/2000/svg" xmlns:xlink="http://www.w3.org/1999/xlink" x="0px" y="0px"
	 viewBox="0 0 50 50" style="enable-background:new 0 0 50 50;" xml:space="preserve">
<style type="text/css">
	.st0{fill:#1A2253;}
</style>
<path class="st0" d="M16.7,40.3c0,0.2-0.2,0.4-0.5,0.4c-0.3,0-0.6-0.1-0.6-0.4c0-0.2,0.2-0.4,0.5-0.4C16.5,39.9,16.7,40,16.7,40.3z
	 M13.6,39.8c-0.1,0.2,0.1,0.4,0.4,0.5c0.3,0.1,0.6,0,0.6-0.2s-0.1-0.4-0.4-0.5C14,39.5,13.7,39.6,13.6,39.8L13.6,39.8z M18,39.6
	c-0.3,0.1-0.5,0.3-0.5,0.5c0,0.2,0.3,0.3,0.6,0.3c0.3-0.1,0.5-0.3,0.5-0.5C18.6,39.7,18.3,39.6,18,39.6z M24.7,0
	C10.7,0,0,10.9,0,25.2C0,36.7,7,46.5,17.1,50c1.3,0.2,1.7-0.6,1.7-1.3c0-0.6,0-4.2,0-6.3c0,0-7.1,1.6-8.5-3.1c0,0-1.1-3-2.8-3.8
	c0,0-2.3-1.6,0.2-1.6c0,0,2.5,0.2,3.9,2.7c2.2,4,5.9,2.8,7.3,2.2c0.2-1.7,0.9-2.8,1.6-3.5c-5.6-0.6-11.3-1.5-11.3-11.4
	c0-2.8,0.8-4.3,2.4-6.1c-0.3-0.7-1.1-3.4,0.3-7c2.1-0.7,7,2.8,7,2.8c2-0.6,4.2-0.9,6.3-0.9s4.3,0.3,6.3,0.9c0,0,4.8-3.5,7-2.8
	c1.4,3.6,0.5,6.3,0.3,7c1.6,1.8,2.6,3.3,2.6,6.1c0,10-5.9,10.8-11.6,11.4c0.9,0.8,1.7,2.4,1.7,4.8c0,3.5,0,7.8,0,8.6
	c0,0.7,0.5,1.5,1.7,1.3C43.2,46.5,50,36.7,50,25.2C50,10.9,38.7,0,24.7,0z M9.8,35.7c-0.1,0.1-0.1,0.3,0.1,0.5
	c0.2,0.2,0.4,0.2,0.5,0.1c0.1-0.1,0.1-0.3-0.1-0.5C10.2,35.6,9.9,35.5,9.8,35.7z M8.7,34.8c-0.1,0.1,0,0.3,0.2,0.4
	c0.2,0.1,0.4,0.1,0.4-0.1c0.1-0.1,0-0.3-0.2-0.4C8.9,34.7,8.8,34.7,8.7,34.8z M12,38.5c-0.2,0.1-0.1,0.4,0.1,0.6
	c0.2,0.2,0.5,0.3,0.7,0.1c0.1-0.1,0.1-0.4-0.1-0.6C12.4,38.4,12.1,38.3,12,38.5z M10.8,37c-0.2,0.1-0.2,0.4,0,0.6
	c0.2,0.2,0.4,0.3,0.6,0.2c0.2-0.1,0.2-0.4,0-0.6C11.3,37,11,36.8,10.8,37L10.8,37z"/>
</svg>
