<?xml version="1.0" encoding="utf-8"?>
<!-- Generator: Adobe Illustrator 24.0.2, SVG Export Plug-In . SVG Version: 6.00 Build 0)  -->
<svg version="1.1" id="Capa_1" xmlns="http://www.w3.org/2000/svg" xmlns:xlink="http://www.w3.org/1999/xlink" x="0px" y="0px"
	 viewBox="0 0 50 50" style="enable-background:new 0 0 50 50;" xml:space="preserve">
<style type="text/css">
	.st0{opacity:0.5;enable-background:new    ;}
</style>
<path class="st0" d="M32.5,8.2l-10,35c-0.4,1.3-1.8,2.1-3.1,1.7c-1.3-0.4-2.1-1.8-1.7-3.1l10-35c0.4-1.3,1.8-2.1,3.1-1.7
	C32.1,5.5,32.8,6.8,32.5,8.2L32.5,8.2z M40.6,14.5l8.8,8.8c1,1,1,2.5,0,3.5l-8.8,8.8c-1,1-2.5,1-3.5,0c-1-1-1-2.5,0-3.5l7-7l-7-7
	c-1-1-1-2.5,0-3.5S39.6,13.5,40.6,14.5L40.6,14.5z M13.1,18l-7,7l7,7c1,1,1,2.5,0,3.5c-1,1-2.5,1-3.5,0l-8.8-8.8c-1-1-1-2.5,0-3.5
	l8.8-8.8c1-1,2.5-1,3.5,0C14,15.5,14,17,13.1,18L13.1,18z"/>
</svg>
