<?xml version="1.0" encoding="utf-8"?>
<!-- Generator: Adobe Illustrator 24.0.2, SVG Export Plug-In . SVG Version: 6.00 Build 0)  -->
<svg version="1.1" id="Capa_1" xmlns="http://www.w3.org/2000/svg" xmlns:xlink="http://www.w3.org/1999/xlink" x="0px" y="0px"
	 viewBox="0 0 320 256" style="enable-background:new 0 0 320 256;" xml:space="preserve">
<style type="text/css">
	.st0{fill:#B2B2B2;}
</style>
<path class="st0" d="M207.4,20.4l-64,224c-2.4,8.5-11.3,13.4-19.8,11s-13.4-11.3-11-19.8l64-224c2.4-8.5,11.3-13.4,19.8-11
	C204.9,3.1,209.8,11.9,207.4,20.4L207.4,20.4z M259.3,60.7l56,56c6.2,6.2,6.2,16.3,0,22.6l-56,56c-6.2,6.2-16.3,6.2-22.6,0
	s-6.2-16.3,0-22.6l44.6-44.7l-44.6-44.7c-6.2-6.2-6.2-16.3,0-22.6S253.1,54.5,259.3,60.7L259.3,60.7z M83.3,83.3L38.7,128l44.7,44.7
	c6.2,6.2,6.2,16.3,0,22.6c-6.2,6.2-16.3,6.2-22.6,0l-56-56c-6.2-6.2-6.2-16.3,0-22.6l56-56c6.2-6.2,16.3-6.2,22.6,0
	C89.6,67,89.6,77.1,83.3,83.3L83.3,83.3z"/>
</svg>
