<?xml version="1.0" encoding="utf-8"?>
<!-- Generator: Adobe Illustrator 24.0.2, SVG Export Plug-In . SVG Version: 6.00 Build 0)  -->
<svg version="1.1" id="Capa_1" xmlns="http://www.w3.org/2000/svg" xmlns:xlink="http://www.w3.org/1999/xlink" x="0px" y="0px"
	 viewBox="0 0 50 50" style="enable-background:new 0 0 50 50;" xml:space="preserve">
<style type="text/css">
	.st0{opacity:0.5;enable-background:new    ;}
</style>
<path class="st0" d="M33.1,30.6c1-0.6,2.3-1.2,2.3-1.2s-3.8,0.7-7.5,1c-4.6,0.4-9.5,0.4-12,0.1c-5.9-0.8,3.2-2.9,3.2-2.9
	s-3.5-0.2-7.9,1.9C6,31.9,23.9,33,33.1,30.6z M24.8,27.4c-1.9-4.2-8.1-7.8,0-14.2C34.9,5.2,29.7,0,29.7,0
	c2.1,8.2-7.4,10.7-10.8,15.9C16.6,19.4,20,23.1,24.8,27.4z M36,10.2c0,0-17.1,4.3-8.9,13.7c2.4,2.8-0.6,5.3-0.6,5.3s6.1-3.2,3.3-7.1
	C27.1,18.4,25.1,16.5,36,10.2z M35.4,36.6c-0.1,0.1-0.1,0.2-0.2,0.3c12.5-3.3,7.9-11.6,1.9-9.5c-0.3,0.1-0.6,0.3-0.8,0.6
	c0.4-0.1,0.7-0.2,1.1-0.3C40.4,27.1,44.7,31.8,35.4,36.6L35.4,36.6z M40,42.7c0,0,1.4,1.2-1.5,2.1c-5.6,1.7-23.5,2.2-28.5,0.1
	c-1.8-0.8,1.6-1.9,2.6-2.1c1.1-0.2,1.7-0.2,1.7-0.2c-2-1.4-12.8,2.7-5.5,3.9C28.7,49.7,45.1,45.1,40,42.7z M18.1,38.7
	c-7.7,2.1,4.7,6.6,14.5,2.4c-1-0.4-1.9-0.8-2.8-1.3c-4.4,0.8-6.4,0.9-10.4,0.4C16.2,39.8,18.1,38.7,18.1,38.7z M35.7,48.2
	c-7.7,1.4-17.2,1.3-22.8,0.4c0,0,1.2,0.9,7.1,1.3c9,0.6,22.8-0.3,23.1-4.6C43.1,45.3,42.5,46.9,35.7,48.2L35.7,48.2z M31.4,34.5
	c-5.8,1.1-9.1,1.1-13.4,0.6c-3.3-0.3-1.1-1.9-1.1-1.9c-8.5,2.8,4.7,6,16.5,2.5C32.7,35.4,32,35,31.4,34.5z"/>
</svg>
