<?xml version="1.0" encoding="utf-8"?>
<!-- Generator: Adobe Illustrator 24.0.2, SVG Export Plug-In . SVG Version: 6.00 Build 0)  -->
<svg version="1.1" id="Capa_1" xmlns="http://www.w3.org/2000/svg" xmlns:xlink="http://www.w3.org/1999/xlink" x="0px" y="0px"
	 viewBox="0 0 256 256" style="enable-background:new 0 0 256 256;" xml:space="preserve">
<style type="text/css">
	.st0{opacity:0.5;}
</style>
<path class="st0" d="M170.7,156.5c4.9-3.3,11.7-6.2,11.7-6.2s-19.3,3.5-38.6,5.1c-23.5,1.9-48.8,2.3-61.5,0.6c-30-4,16.5-15,16.5-15
	s-18-1.2-40.3,9.5C32.2,163.1,123.5,168.9,170.7,156.5z M128,140.4c-9.5-21.3-41.5-40.1,0-72.9C179.8,26.6,153.3,0,153.3,0
	c10.7,42.2-37.8,55-55.3,81.3C86,99.3,103.8,118.5,128,140.4z M185.3,52.3c0.1,0-87.6,21.9-45.7,70.1c12.3,14.2-3.2,27-3.2,27
	s31.3-16.2,16.9-36.4C139.8,94.1,129.5,84.7,185.3,52.3z M182.3,187.6c-0.3,0.5-0.6,0.9-1,1.3c64.1-16.8,40.5-59.4,9.9-48.6
	c-1.7,0.6-3.1,1.7-4.1,3.1c1.8-0.6,3.6-1.1,5.5-1.5C208.1,138.6,230.3,162.6,182.3,187.6L182.3,187.6z M205.8,218.7
	c0,0,7.2,5.9-7.9,10.6c-28.9,8.7-120.4,11.4-145.8,0.4c-9.1-3.9,8-9.5,13.4-10.6c5.6-1.2,8.8-1,8.8-1c-10.1-7.1-65.6,14-28.2,20.1
	C148.3,254.7,232.3,230.7,205.8,218.7z M94.1,198c-39.3,11,23.9,33.7,74,12.2c-4.9-1.9-9.6-4.2-14.1-6.9c-22.3,4.2-32.7,4.5-53,2.2
	C84.3,203.7,94.1,198,94.1,198z M184,246.6c-39.3,7.4-87.9,6.5-116.6,1.8c0-0.1,5.9,4.8,36.2,6.8c46.1,2.9,116.9-1.6,118.5-23.4
	C222.1,231.8,218.9,240,184,246.6L184,246.6z M162.2,176.5c-29.6,5.7-46.7,5.5-68.4,3.3C77,178.1,88,170,88,170
	c-43.4,14.4,24.1,30.7,84.7,12.9C168.8,181.5,165.2,179.3,162.2,176.5z"/>
</svg>
