<?xml version="1.0" encoding="utf-8"?>
<!-- Generator: Adobe Illustrator 24.0.2, SVG Export Plug-In . SVG Version: 6.00 Build 0)  -->
<svg version="1.1" id="Capa_1" xmlns="http://www.w3.org/2000/svg" xmlns:xlink="http://www.w3.org/1999/xlink" x="0px" y="0px"
	 viewBox="0 0 50 50" style="enable-background:new 0 0 50 50;" xml:space="preserve">
<style type="text/css">
	.st0{opacity:0.5;enable-background:new    ;}
</style>
<path class="st0" d="M44.6,0H5.4C2.4,0,0,2.4,0,5.4v39.3c0,3,2.4,5.4,5.4,5.4h39.3c3,0,5.4-2.4,5.4-5.4V5.4C50,2.4,47.6,0,44.6,0z
	 M27.2,39c0,4.9-2.9,7.1-7,7.1c-3.7,0-5.9-1.9-7.1-4.3l3.8-2.3c0.7,1.3,1.4,2.4,3,2.4c1.5,0,2.5-0.6,2.5-3v-16h4.7L27.2,39L27.2,39z
	 M38.3,46.1c-4.4,0-7.2-2.1-8.5-4.8l3.8-2.2c1,1.7,2.3,2.9,4.6,2.9c1.9,0,3.2-1,3.2-2.3c0-1.6-1.3-2.2-3.4-3.1L36.8,36
	c-3.4-1.4-5.6-3.3-5.6-7.1c0-3.5,2.7-6.2,6.9-6.2c3,0,5.1,1,6.7,3.8l-3.6,2.4c-0.8-1.4-1.7-2-3-2c-1.4,0-2.3,0.9-2.3,2
	c0,1.4,0.9,2,2.9,2.9l1.2,0.5c4,1.7,6.2,3.5,6.2,7.4C46.1,43.8,42.8,46.1,38.3,46.1L38.3,46.1z"/>
</svg>
