<?xml version="1.0" encoding="utf-8"?>
<!-- Generator: Adobe Illustrator 24.0.2, SVG Export Plug-In . SVG Version: 6.00 Build 0)  -->
<svg version="1.1" id="Capa_1" xmlns="http://www.w3.org/2000/svg" xmlns:xlink="http://www.w3.org/1999/xlink" x="0px" y="0px"
	 viewBox="0 0 224 224" style="enable-background:new 0 0 224 224;" xml:space="preserve">
<style type="text/css">
	.st0{opacity:0.5;}
</style>
<path class="st0" d="M200,0H24C10.8,0,0,10.8,0,24v176c0,13.3,10.8,24,24,24h176c13.3,0,24-10.8,24-24V24C224,10.8,213.3,0,200,0z
	 M121.9,174.7c0,21.8-12.8,31.8-31.5,31.8c-16.8,0-26.6-8.7-31.6-19.3L76,176.8c3.3,5.9,6.3,10.8,13.6,10.8
	c6.9,0,11.3-2.7,11.3-13.3v-71.5H122L121.9,174.7L121.9,174.7z M171.7,206.4c-19.6,0-32.2-9.3-38.3-21.5l17.1-9.9
	c4.5,7.4,10.4,12.8,20.8,12.8c8.7,0,14.3-4.4,14.3-10.4c0-7.2-5.7-9.8-15.4-14l-5.3-2.3c-15.2-6.4-25.3-14.6-25.3-31.8
	c0-15.8,12.1-27.8,30.8-27.8c13.4,0,23,4.7,29.9,16.9L184,129c-3.6-6.4-7.5-9-13.6-9s-10.1,3.9-10.1,9c0,6.3,3.9,8.9,12.9,12.8
	l5.3,2.3c17.9,7.6,27.9,15.5,27.9,33.1C206.6,196.1,191.6,206.4,171.7,206.4L171.7,206.4z"/>
</svg>
