<svg xmlns="http://www.w3.org/2000/svg" viewBox="0 0 250 250"><defs><style>.cls-1{fill:#202020;opacity:0.5;}</style></defs><title>left-arrow</title><g id="Arrows"><path class="cls-1" d="M241.7,103,169.93,28a22.07,22.07,0,0,0-16-7.17H24.25c-13.39,0-24.25,13-24.25,29V200.14c0,16,10.86,29,24.25,29H154a22.09,22.09,0,0,0,16-7.2l71.79-75.26C252.77,135.13,252.76,114.56,241.7,103ZM85.61,172.77c0,6.91-5.79,10.77-9.74,6.49l-44-47.77c-3.05-3.31-3.05-9.67,0-13l44-47.77c3.95-4.28,9.74-.42,9.74,6.49Z"/></g></svg>