<?xml version="1.0" encoding="utf-8"?>
<!-- Generator: Adobe Illustrator 24.0.2, SVG Export Plug-In . SVG Version: 6.00 Build 0)  -->
<svg version="1.1" id="Capa_1" xmlns="http://www.w3.org/2000/svg" xmlns:xlink="http://www.w3.org/1999/xlink" x="0px" y="0px"
	 viewBox="0 0 50 50" style="enable-background:new 0 0 50 50;" xml:space="preserve">
<style type="text/css">
	.st0{opacity:0.5;enable-background:new    ;}
</style>
<path class="st0" d="M48.6,41.5c2,2,2,5.1,0,7.1c-1,1-2.2,1.5-3.5,1.5s-2.6-0.5-3.5-1.5L25,32.1L8.6,48.6c-1,1-2.2,1.5-3.5,1.5
	s-2.6-0.5-3.5-1.5c-2-2-2-5.1,0-7.1L18,25.1L1.5,8.6c-2-2-2-5.1,0-7.1s5.1-2,7.1,0L25,18L41.5,1.5c2-2,5.1-2,7.1,0c2,2,2,5.1,0,7.1
	L32.1,25.1L48.6,41.5z"/>
</svg>
