<?xml version="1.0" encoding="utf-8"?>
<!-- Generator: Adobe Illustrator 24.0.2, SVG Export Plug-In . SVG Version: 6.00 Build 0)  -->
<svg version="1.1" id="Capa_1" xmlns="http://www.w3.org/2000/svg" xmlns:xlink="http://www.w3.org/1999/xlink" x="0px" y="0px"
	 viewBox="0 0 50 50" style="enable-background:new 0 0 50 50;" xml:space="preserve">
<style type="text/css">
	.st0{fill:#1A2253;}
</style>
<path class="st0" d="M49.9,35.9c0,4.3-4.2,7.8-9.3,7.8s-9.3-3.5-9.3-7.7c0-4.3,4.2-7.7,9.3-7.7c1.1,0,2.1,0.2,3.1,0.5V14.5l-25,7.4
	v20.3c-0.1,4.3-4.2,7.8-9.5,7.8S0,46.5,0,42.2s4.2-7.7,9.3-7.7c1.1,0,2.1,0.2,3.1,0.5V12.4c0-1.3,1-2.6,2.2-3l31.2-9.2
	C46.1,0.1,46.6,0,46.9,0C48.6,0,50,1.4,50,3.1L49.9,35.9z"/>
</svg>
