<?xml version="1.0" encoding="utf-8"?>
<!-- Generator: Adobe Illustrator 24.0.2, SVG Export Plug-In . SVG Version: 6.00 Build 0)  -->
<svg version="1.1" id="Capa_1" xmlns="http://www.w3.org/2000/svg" xmlns:xlink="http://www.w3.org/1999/xlink" x="0px" y="0px"
	 viewBox="0 0 288 256" style="enable-background:new 0 0 288 256;" xml:space="preserve">
<style type="text/css">
	.st0{fill:#1A2253;}
</style>
<path class="st0" d="M241.1,96c17.1,0,46.9,14.5,46.9,32c0,18-29.8,32-46.9,32h-58.3l-50.3,87.9c-2.9,4.9-8.2,8.1-13.9,8.1H90.6
	c-5.3,0-9.2-5.1-7.7-10.2l24.5-85.8H56l-21.6,28.8c-1.5,2-3.9,3.2-6.4,3.2H7c-3.8,0-7-3.1-7-7.4c0-0.2,0.1-0.9,0.3-1.5L16,128
	L0.3,72.9C0.1,72.3,0,71.7,0,71c0-3.8,3.2-7,7-7h21c2.5,0,4.9,1.2,6.4,3.2L56,96h51.4L82.9,10.2C81.4,5.1,85.3,0,90.6,0h28.1
	c5.8,0,11.1,3.1,13.9,8.1L182.9,96H241.1z"/>
</svg>
