<?xml version="1.0" encoding="utf-8"?>
<!-- Generator: Adobe Illustrator 24.0.2, SVG Export Plug-In . SVG Version: 6.00 Build 0)  -->
<svg version="1.1" id="Capa_1" xmlns="http://www.w3.org/2000/svg" xmlns:xlink="http://www.w3.org/1999/xlink" x="0px" y="0px"
	 viewBox="0 0 576 512" style="enable-background:new 0 0 576 512;" xml:space="preserve">
<style type="text/css">
	.st0{fill:#1A2253;}
</style>
<path class="st0" d="M482.3,192c34.2,0,93.7,29,93.7,64c0,36-59.5,64-93.7,64H365.7L265.2,495.9c-5.7,9.9-16.3,16.1-27.8,16.1h-56.2
	c-10.6,0-18.3-10.2-15.4-20.4L214.9,320H112l-43.2,57.6c-3,4-7.8,6.4-12.8,6.4H14c-7.7,0-14-6.3-14-14.9c0-0.4,0.2-1.7,0.5-3L32,256
	L0.5,145.9C0.2,144.6,0,143.3,0,142c0-7.7,6.3-14,14-14h42c5,0,9.8,2.4,12.8,6.4L112,192h102.9L165.8,20.4
	C162.9,10.2,170.6,0,181.2,0h56.2c11.5,0,22.1,6.2,27.8,16.1L365.7,192H482.3z"/>
</svg>
