<?xml version="1.0" encoding="utf-8"?>
<!-- Generator: Adobe Illustrator 24.0.2, SVG Export Plug-In . SVG Version: 6.00 Build 0)  -->
<svg version="1.1" id="Capa_1" xmlns="http://www.w3.org/2000/svg" xmlns:xlink="http://www.w3.org/1999/xlink" x="0px" y="0px"
	 viewBox="0 0 56.3 50" style="enable-background:new 0 0 56.3 50;" xml:space="preserve">
<style type="text/css">
	.st0{fill:#1A2253;}
</style>
<path class="st0" d="M47.1,18.8c3.3,0,9.2,2.8,9.2,6.3c0,3.5-5.8,6.3-9.2,6.3H35.7l-9.8,17.2c-0.6,1-1.6,1.6-2.7,1.6h-5.5
	c-1,0-1.8-1-1.5-2L21,31.3h-10l-4.2,5.6c-0.3,0.4-0.8,0.6-1.3,0.6H1.4c-0.7,0-1.4-0.6-1.4-1.4c0,0,0-0.2,0.1-0.3L3.1,25L0.1,14.2
	C0,14.1,0,14,0,13.9c0-0.7,0.6-1.4,1.4-1.4h4.1c0.5,0,1,0.2,1.3,0.6l4.2,5.6h10L16.2,2c-0.3-1,0.5-2,1.5-2h5.5
	c1.1,0,2.2,0.6,2.7,1.6l9.8,17.2H47.1z"/>
</svg>
