<?xml version="1.0" encoding="utf-8"?>
<!-- Generator: Adobe Illustrator 24.0.2, SVG Export Plug-In . SVG Version: 6.00 Build 0)  -->
<svg version="1.1" id="Capa_1" xmlns="http://www.w3.org/2000/svg" xmlns:xlink="http://www.w3.org/1999/xlink" x="0px" y="0px"
	 viewBox="0 0 50 50" style="enable-background:new 0 0 50 50;" xml:space="preserve">
<style type="text/css">
	.st0{fill:#1A2253;}
</style>
<path class="st0" d="M40.9,17.2c-0.5-0.2-1.1-0.4-1.6-0.5c0.1-0.4,0.2-0.7,0.3-1.1c1.2-5.8,0.4-10.5-2.3-12c-2.6-1.5-6.8,0.1-11,3.7
	c-0.4,0.4-0.8,0.7-1.2,1.1c-0.3-0.3-0.5-0.5-0.8-0.7c-4.4-3.9-8.9-5.6-11.6-4c-2.6,1.5-3.3,5.9-2.2,11.4c0.1,0.5,0.2,1.1,0.4,1.6
	c-0.6,0.2-1.2,0.4-1.8,0.6c-5.2,1.8-8.9,4.7-8.9,7.6c0,3,4,6.1,9.4,8c0.4,0.2,0.9,0.3,1.3,0.4c-0.2,0.6-0.3,1.2-0.4,1.8
	c-1,5.4-0.2,9.7,2.3,11.2c2.6,1.5,7.1,0,11.4-3.8c0.4-0.3,0.7-0.6,1-1c0.4,0.4,0.9,0.8,1.3,1.2c4.2,3.6,8.3,5.1,10.9,3.6
	c2.6-1.5,3.5-6.1,2.4-11.8c-0.1-0.4-0.2-0.9-0.3-1.3c0.3-0.1,0.6-0.2,0.9-0.3c5.6-1.9,9.7-4.9,9.7-8C50.1,21.9,46.2,19.1,40.9,17.2
	L40.9,17.2z M27.7,9c3.6-3.2,7-4.4,8.5-3.5c1.6,0.9,2.3,4.8,1.2,9.8c-0.1,0.3-0.1,0.6-0.2,1c-2.2-0.5-4.4-0.8-6.6-1
	c-1.3-1.8-2.7-3.6-4.2-5.2C27,9.6,27.3,9.3,27.7,9z M16.4,30c0.5,0.9,1,1.7,1.5,2.5c-1.5-0.2-3-0.4-4.5-0.7c0.4-1.4,1-2.8,1.6-4.4
	C15.5,28.3,15.9,29.1,16.4,30L16.4,30z M13.4,18.2c1.4-0.3,2.9-0.6,4.4-0.8c-0.5,0.8-1,1.6-1.5,2.5c-0.5,0.8-0.9,1.7-1.4,2.5
	C14.4,21,13.9,19.6,13.4,18.2L13.4,18.2z M16.1,24.9c0.6-1.3,1.3-2.7,2.1-4s1.5-2.6,2.4-3.8c1.5-0.1,3-0.2,4.5-0.2s3,0.1,4.5,0.2
	c0.8,1.2,1.6,2.5,2.4,3.8c0.7,1.3,1.4,2.6,2.1,3.9c-0.7,1.3-1.3,2.7-2.1,4c-0.7,1.3-1.5,2.6-2.4,3.8c-1.4,0.1-3,0.2-4.5,0.2
	c-1.5,0-3-0.1-4.4-0.1c-0.8-1.2-1.6-2.5-2.4-3.8C17.5,27.6,16.8,26.3,16.1,24.9L16.1,24.9z M33.7,29.9c0.5-0.9,1-1.7,1.4-2.6
	c0.6,1.4,1.2,2.8,1.6,4.3c-1.5,0.4-3,0.6-4.6,0.8C32.8,31.6,33.3,30.8,33.7,29.9L33.7,29.9z M35.2,22.5c-0.5-0.9-0.9-1.7-1.4-2.6
	c-0.5-0.8-1-1.6-1.5-2.5c1.6,0.2,3.1,0.4,4.5,0.8C36.3,19.7,35.8,21.1,35.2,22.5z M25.1,11.5c1,1.1,2,2.3,2.9,3.5
	c-1.9-0.1-3.9-0.1-5.8,0C23.1,13.7,24.1,12.5,25.1,11.5z M13.8,5.5c1.6-1,5.3,0.4,9.1,3.8c0.3,0.2,0.5,0.4,0.7,0.7
	c-1.5,1.6-2.9,3.4-4.2,5.2c-2.2,0.2-4.4,0.5-6.6,1c-0.1-0.5-0.2-1-0.4-1.5C11.6,9.9,12.2,6.4,13.8,5.5L13.8,5.5z M11.4,31.2
	c-0.4-0.1-0.8-0.3-1.2-0.4c-2.1-0.7-4.4-1.7-6.1-3c-1-0.7-1.6-1.7-1.8-2.9c0-1.8,3.1-4.1,7.5-5.6c0.5-0.2,1.1-0.4,1.7-0.5
	c0.7,2.1,1.5,4.2,2.4,6.2C12.9,27,12.1,29.1,11.4,31.2z M22.8,40.8c-1.6,1.5-3.5,2.7-5.5,3.4c-1.1,0.5-2.3,0.6-3.5,0.1
	c-1.6-0.9-2.2-4.4-1.3-9c0.1-0.5,0.2-1.1,0.4-1.6c2.2,0.5,4.4,0.8,6.6,1c1.3,1.8,2.7,3.6,4.2,5.2C23.4,40.2,23.1,40.5,22.8,40.8
	L22.8,40.8z M25.2,38.4c-1-1.1-2-2.3-3-3.5c0.9,0,1.9,0.1,2.9,0.1c1,0,2,0,3-0.1C27.1,36.1,26.2,37.3,25.2,38.4z M37.9,41.3
	c-0.1,1.2-0.7,2.3-1.6,3c-1.5,0.9-4.9-0.3-8.4-3.3c-0.4-0.4-0.8-0.7-1.2-1.1c1.5-1.6,2.9-3.4,4.1-5.2c2.2-0.2,4.5-0.5,6.7-1
	c0.1,0.4,0.2,0.8,0.3,1.2C38.1,37,38.2,39.2,37.9,41.3L37.9,41.3z M39.7,30.8c-0.3,0.1-0.5,0.2-0.8,0.3c-0.7-2.1-1.5-4.2-2.5-6.2
	c0.9-2,1.7-4,2.4-6.1c0.5,0.2,1,0.3,1.5,0.4c4.5,1.6,7.7,3.9,7.7,5.7C48,26.8,44.6,29.2,39.7,30.8z M25.1,29.4c2.5,0,4.5-2,4.5-4.5
	c0-2.5-2-4.5-4.5-4.5s-4.5,2-4.5,4.5C20.6,27.4,22.6,29.4,25.1,29.4L25.1,29.4z"/>
</svg>
