<?xml version="1.0" encoding="utf-8"?>
<!-- Generator: Adobe Illustrator 24.0.2, SVG Export Plug-In . SVG Version: 6.00 Build 0)  -->
<svg version="1.1" id="Capa_1" xmlns="http://www.w3.org/2000/svg" xmlns:xlink="http://www.w3.org/1999/xlink" x="0px" y="0px"
	 viewBox="0 0 256 256" style="enable-background:new 0 0 256 256;" xml:space="preserve">
<style type="text/css">
	.st0{opacity:0.5;}
</style>
<path class="st0" d="M209.1,88.6c-2.7-0.9-5.4-1.8-8.1-2.6c0.4-1.8,0.9-3.7,1.3-5.6c6.1-29.8,2.1-53.8-11.6-61.7
	c-13.1-7.6-34.6,0.3-56.3,19.2c-2.1,1.8-4.3,3.8-6.3,5.8c-1.3-1.3-2.8-2.6-4.2-3.8c-22.8-20.2-45.5-28.7-59.2-20.7
	c-13.1,7.6-17,30.1-11.5,58.3c0.5,2.8,1.2,5.6,1.8,8.3c-3.2,0.9-6.3,1.9-9.3,2.9C19.1,98.1,0,112.7,0,127.8
	c0,15.6,20.4,31.3,48.2,40.8c2.3,0.8,4.5,1.5,6.8,2.1c-0.8,3-1.4,5.9-2,9c-5.3,27.8-1.2,49.8,12,57.3c13.5,7.8,36.2-0.2,58.3-19.6
	c1.8-1.6,3.5-3.1,5.3-4.9c2.2,2.1,4.5,4.2,6.8,6.2c21.4,18.4,42.6,25.9,55.6,18.3c13.5-7.8,17.9-31.4,12.2-60.3
	c-0.4-2.2-0.9-4.4-1.5-6.8c1.6-0.4,3.1-0.9,4.7-1.4c28.9-9.6,49.8-25,49.8-40.8C256,112.7,236.3,98,209.1,88.6L209.1,88.6z
	 M141.4,46.2c18.6-16.2,35.9-22.5,43.8-18c8.4,4.8,11.7,24.4,6.4,50.2c-0.4,1.7-0.7,3.3-1.1,5c-11.1-2.5-22.4-4.3-33.6-5.3
	c-6.5-9.3-13.6-18.2-21.3-26.5C137.6,49.7,139.4,47.9,141.4,46.2z M83.6,153.8c2.6,4.4,5.2,8.7,7.9,12.9c-7.8-0.9-15.6-2.1-23.2-3.8
	c2.2-7.2,4.9-14.6,8.2-22.3C78.8,145.1,81.1,149.5,83.6,153.8L83.6,153.8z M68.4,93.6c7.2-1.6,14.8-2.9,22.8-3.9
	c-2.7,4.2-5.3,8.4-7.7,12.7c-2.4,4.3-4.8,8.6-7.1,13C73.3,108,70.7,100.7,68.4,93.6L68.4,93.6z M82.2,128.1
	c3.3-6.9,6.9-13.7,10.7-20.3s7.9-13.1,12.2-19.4c7.5-0.6,15.2-0.8,23-0.8s15.5,0.3,22.9,0.8c4.3,6.3,8.3,12.8,12.1,19.3
	s7.4,13.3,10.9,20.2c-3.4,6.9-6.9,13.7-10.8,20.4c-3.8,6.6-7.9,13.1-12.1,19.5c-7.4,0.6-15.2,0.8-23.1,0.8s-15.4-0.3-22.8-0.7
	c-4.3-6.4-8.4-12.9-12.3-19.5S85.5,135,82.2,128.1L82.2,128.1z M172.4,153.7c2.6-4.4,4.9-8.9,7.3-13.4c3.2,7.3,6,14.6,8.4,22.1
	c-7.8,1.8-15.6,3.1-23.5,4C167.4,162.3,169.9,158,172.4,153.7L172.4,153.7z M179.6,115.4c-2.4-4.4-4.8-8.8-7.3-13.1
	c-2.4-4.3-5-8.4-7.6-12.6c8.1,1,15.8,2.3,22.9,4C185.4,101.1,182.7,108.3,179.6,115.4z M128.1,59.2c5.3,5.7,10.2,11.7,14.8,17.9
	c-9.9-0.4-19.8-0.4-29.8,0C118.1,70.6,123.1,64.6,128.1,59.2z M70.1,28.5c8.4-4.9,27,2.1,46.7,19.5c1.3,1.1,2.5,2.3,3.8,3.5
	c-7.8,8.3-14.9,17.3-21.4,26.6c-11.3,1-22.5,2.8-33.6,5.2c-0.7-2.6-1.2-5.2-1.8-7.8C59.1,51.3,62.2,33.1,70.1,28.5L70.1,28.5z
	 M57.8,160.3c-2.1-0.6-4.2-1.3-6.2-1.9c-10.6-3.4-22.8-8.6-31.5-15.6c-5.1-3.5-8.4-8.9-9.4-14.9c0-9.2,15.8-20.8,38.6-28.8
	c2.8-1,5.8-1.9,8.7-2.8c3.4,10.8,7.5,21.5,12.3,31.8C65.4,138.5,61.3,149.3,57.8,160.3z M116.2,209.3c-8.3,7.6-17.8,13.6-28.2,17.6
	c-5.6,2.6-11.9,2.9-17.7,0.6c-8-4.6-11.3-22.3-6.8-46c0.6-2.8,1.2-5.6,1.8-8.4c11.2,2.4,22.5,4.1,33.9,4.9
	c6.6,9.4,13.8,18.3,21.6,26.7C119.3,206.4,117.8,207.9,116.2,209.3L116.2,209.3z M128.4,197.2c-5.1-5.5-10.2-11.6-15.2-18.1
	c4.8,0.2,9.8,0.3,14.8,0.3c5.2,0,10.2-0.1,15.2-0.4C138.6,185.3,133.6,191.4,128.4,197.2z M193.8,212.2c-0.4,6.1-3.4,11.8-8.3,15.6
	c-7.9,4.6-24.9-1.4-43.2-17.1c-2.1-1.8-4.2-3.8-6.4-5.8c7.6-8.4,14.7-17.4,21.1-26.8c11.4-0.9,22.9-2.7,34.1-5.3
	c0.5,2.1,0.9,4.1,1.4,6.1C194.9,189.8,195.4,201.1,193.8,212.2L193.8,212.2z M202.9,158.4c-1.4,0.4-2.8,0.9-4.3,1.3
	c-3.5-10.9-7.8-21.6-12.8-31.9c4.8-10.2,8.9-20.7,12.3-31.5c2.6,0.8,5.1,1.6,7.5,2.3c23.3,8,39.6,19.9,39.6,29
	C245.3,137.5,227.8,150.2,202.9,158.4z M128,150.9c12.6,0,22.9-10.3,22.9-22.9c0-12.7-10.3-22.9-22.9-22.9s-22.9,10.3-22.9,22.9
	C105.1,140.7,115.3,150.9,128,150.9L128,150.9z"/>
</svg>
