<?xml version="1.0" encoding="utf-8"?>
<!-- Generator: Adobe Illustrator 24.0.2, SVG Export Plug-In . SVG Version: 6.00 Build 0)  -->
<svg version="1.1" id="Capa_1" xmlns="http://www.w3.org/2000/svg" xmlns:xlink="http://www.w3.org/1999/xlink" x="0px" y="0px"
	 viewBox="0 0 50 50" style="enable-background:new 0 0 50 50;" xml:space="preserve">
<style type="text/css">
	.st0{opacity:0.5;fill:#202020;enable-background:new    ;}
</style>
<title>left-arrow</title>
<g id="Arrows">
	<path class="st0" d="M1.7,20.6L16,5.6c0.8-0.9,2-1.4,3.2-1.4h25.9c2.7,0,4.8,2.6,4.8,5.8V40c0,3.2-2.2,5.8-4.8,5.8H19.2
		c-1.2,0-2.4-0.5-3.2-1.4l-14.3-15C-0.6,27-0.6,22.9,1.7,20.6z M32.9,34.5c0,1.4,1.2,2.2,1.9,1.3l8.8-9.6c0.6-0.7,0.6-1.9,0-2.6
		l-8.8-9.6c-0.8-0.9-1.9-0.1-1.9,1.3V34.5z"/>
</g>
</svg>
