<?xml version="1.0" encoding="utf-8"?>
<!-- Generator: Adobe Illustrator 24.0.2, SVG Export Plug-In . SVG Version: 6.00 Build 0)  -->
<svg version="1.1" id="Capa_1" xmlns="http://www.w3.org/2000/svg" xmlns:xlink="http://www.w3.org/1999/xlink" x="0px" y="0px"
	 viewBox="0 0 500 500" style="enable-background:new 0 0 500 500;" xml:space="preserve">
<style type="text/css">
	.st0{fill:#1A2253;}
</style>
<path class="st0" d="M269.1,89.5l78.2,45.7c2.8,1.6,2.9,6.1,0,7.7l-93,54.3c-2.8,1.7-6.1,1.6-8.7,0l-93-54.3c-2.9-1.6-2.9-6.1,0-7.7
	l78.2-45.7V0L31.3,116.6v233.2l76.5-44.7v-91.4c-0.1-3.3,3.7-5.6,6.5-3.8l93,54.3c2.8,1.7,4.4,4.6,4.4,7.7v108.6
	c0.1,3.3-3.7,5.6-6.5,3.8l-78.2-45.7l-76.5,44.7L250,500l199.6-116.6l-76.5-44.7l-78.2,45.7c-2.8,1.7-6.6-0.5-6.5-3.8V271.9
	c0-3.3,1.8-6.2,4.4-7.7l93-54.3c2.8-1.7,6.6,0.5,6.5,3.8v91.4l76.5,44.7V116.6L269.1,0V89.5z"/>
</svg>
