<?xml version="1.0" encoding="utf-8"?>
<!-- Generator: Adobe Illustrator 24.0.2, SVG Export Plug-In . SVG Version: 6.00 Build 0)  -->
<svg version="1.1" id="Capa_1" xmlns="http://www.w3.org/2000/svg" xmlns:xlink="http://www.w3.org/1999/xlink" x="0px" y="0px"
	 viewBox="0 0 50 50" style="enable-background:new 0 0 50 50;" xml:space="preserve">
<style type="text/css">
	.st0{fill:#1A2253;}
</style>
<path class="st0" d="M27,9l7.8,4.6c0.3,0.2,0.3,0.6,0,0.8l-9.3,5.4c-0.3,0.2-0.6,0.2-0.9,0l-9.3-5.4c-0.3-0.2-0.3-0.6,0-0.8L23.1,9
	V0L3.2,11.7V35l7.7-4.5v-9.1c0-0.3,0.4-0.6,0.7-0.4l9.3,5.4c0.3,0.2,0.4,0.5,0.4,0.8v10.9c0,0.3-0.4,0.6-0.7,0.4l-7.8-4.6l-7.7,4.5
	L25,50l20-11.7l-7.7-4.5l-7.8,4.6c-0.3,0.2-0.7-0.1-0.7-0.4V27.2c0-0.3,0.2-0.6,0.4-0.8l9.3-5.4c0.3-0.2,0.7,0.1,0.7,0.4v9.1
	l7.7,4.5V11.7L27,0V9z"/>
</svg>
