<?xml version="1.0" encoding="utf-8"?>
<!-- Generator: Adobe Illustrator 24.0.2, SVG Export Plug-In . SVG Version: 6.00 Build 0)  -->
<svg version="1.1" id="Capa_1" xmlns="http://www.w3.org/2000/svg" xmlns:xlink="http://www.w3.org/1999/xlink" x="0px" y="0px"
	 viewBox="0 0 250 250" style="enable-background:new 0 0 250 250;" xml:space="preserve">
<style type="text/css">
	.st0{opacity:0.5;}
</style>
<path class="st0" d="M134.6,44.8l39.1,22.8c1.4,0.8,1.4,3.1,0,3.8l-46.5,27.2c-1.4,0.8-3.1,0.8-4.3,0L76.3,71.4
	c-1.4-0.8-1.4-3.1,0-3.8l39.1-22.8V0L15.7,58.3v116.6L54,152.5v-45.7c0-1.7,1.8-2.8,3.3-1.9l46.5,27.2c1.4,0.9,2.2,2.3,2.2,3.9v54.3
	c0.1,1.6-1.8,2.8-3.3,1.9l-39.1-22.9l-38.3,22.4L125,250l99.8-58.3l-38.3-22.4l-39.1,22.9c-1.4,0.9-3.3-0.3-3.3-1.9v-54.4
	c0-1.6,0.9-3.1,2.2-3.9l46.5-27.2c1.4-0.8,3.3,0.3,3.3,1.9v45.7l38.3,22.4V58.3L134.6,0V44.8z"/>
</svg>
