<?xml version="1.0" encoding="utf-8"?>
<!-- Generator: Adobe Illustrator 24.0.2, SVG Export Plug-In . SVG Version: 6.00 Build 0)  -->
<svg version="1.1" id="Capa_1" xmlns="http://www.w3.org/2000/svg" xmlns:xlink="http://www.w3.org/1999/xlink" x="0px" y="0px"
	 viewBox="0 0 50 50" style="enable-background:new 0 0 50 50;" xml:space="preserve">
<style type="text/css">
	.st0{fill:#1A2253;}
</style>
<path class="st0" d="M50,25c0,13.8-11.2,25-25,25S0,38.8,0,25S11.2,0,25,0S50,11.2,50,25z M5.6,18.8l0.9,1.7
	c0.8,1.4,2.1,2.5,3.7,2.9l5.6,1.6c1.8,0.5,2.9,2,2.9,3.8v3.9c0,1.1,0.6,2.1,1.6,2.4c1,0.6,1.6,1.5,1.6,2.6v3.8
	c0,1.5,1.4,2.6,2.9,2.2c1.6-0.4,2.8-1.8,3.2-3.3l0.3-1.1c0.4-1.6,1.5-3.1,2.9-3.9L32,35c1.5-0.8,2.4-2.4,2.4-4.1v-0.8
	c0-1.2-0.5-2.4-1.4-3.3l-0.4-0.4c-0.9-0.9-2.1-1.5-3.3-1.5H25c-1,0-2.1-0.2-3-0.7l-3.4-1.9c-0.4-0.2-0.7-0.6-0.9-1.1
	c-0.3-0.9,0.1-2,1-2.4l0.6-0.3c0.6-0.3,1.4-0.4,2-0.2l2.4,0.7c0.8,0.3,1.7,0,2.1-0.7c0.5-0.7,0.4-1.6-0.1-2.2l-1.3-1.6
	c-1-1.2-1-2.9,0-4l1.5-1.8c0.9-1,1-2.4,0.4-3.6L26,4.7c-0.4,0-0.7,0-1,0C15.9,4.7,8.2,10.6,5.6,18.8L5.6,18.8z M42.7,15.1l-2.5,1
	c-1.5,0.6-2.3,2.3-1.8,3.9l1.6,4.9c0.4,1,1.2,1.8,2.2,2.1l2.9,0.7c0.1-0.9,0.2-1.8,0.2-2.7C45.3,21.4,44.4,18,42.7,15.1L42.7,15.1z"
	/>
</svg>
