<?xml version="1.0" encoding="utf-8"?>
<!-- Generator: Adobe Illustrator 24.0.2, SVG Export Plug-In . SVG Version: 6.00 Build 0)  -->
<svg version="1.1" id="Capa_1" xmlns="http://www.w3.org/2000/svg" xmlns:xlink="http://www.w3.org/1999/xlink" x="0px" y="0px"
	 viewBox="0 0 256 256" style="enable-background:new 0 0 256 256;" xml:space="preserve">
<style type="text/css">
	.st0{fill:#1A2253;}
</style>
<path class="st0" d="M256,128c0,70.7-57.3,128-128,128S0,198.7,0,128S57.3,0,128,0S256,57.3,256,128z M28.9,96.1l4.7,8.7
	c4.2,7.3,11,12.6,19,14.9l28.5,8.3c9.1,2.4,14.9,10.3,14.9,19.3v19.9c0,5.5,3.1,10.5,8,12.5c4.9,2.9,8,7.9,8,13.4v19.5
	c0,7.8,7.4,13.4,14.9,11.3c8.1-2.3,14.3-9.1,16.4-16.9l1.4-5.6c2.1-8.4,7.6-15.7,15.1-20.1l4.1-2.3c7.5-4.3,12.1-12.2,12.1-20.9
	v-4.1c0-6.4-2.6-12.5-7.1-17l-1.9-1.9c-4.5-4.5-10.6-7.5-17-7.5h-22c-5.1,0-10.6-1-15.4-3.8l-17.3-9.9c-2.2-1.2-3.8-3.2-4.6-5.6
	c-1.6-4.8,0.6-10,5.1-12.3l3-1.4c3.3-1.7,7.1-1.9,10.2-0.8l12.1,3.8c4.1,1.3,8.6-0.2,10.9-3.8c2.4-3.6,2.1-8.2-0.6-11.4l-6.8-8.1
	c-5-6-4.9-14.8,0.2-20.7l7.8-9.2c4.4-5.2,5.1-12.5,1.8-18.4l-1.2-2.1c-2.1-0.1-3.4-0.1-5.2-0.1C81.6,24,42.2,54.5,28.9,96.1
	L28.9,96.1z M218.8,77.3L206,82.4c-7.9,3.2-11.9,11.8-9.3,19.9l8.4,25.3c1.8,5.2,6,9.2,11.3,10.5l14.6,3.6c0.6-4.5,0.9-9.1,0.9-13.8
	C232,109.6,227.2,92.3,218.8,77.3L218.8,77.3z"/>
</svg>
